# xmcd
#
# Track frame offsets:
#	200
#	21122
#	43400
#	64445
#	77337
#	94625
#	117050
#	129275
#	143675
#	160400
#	179550
#	205360
#	218610
#
# Disc length: 2924 seconds
#
# Revision: 1
# Processed by: cddbd v1.4PL0 Copyright (c) Steve Scherf et al.
# Submitted via: audiograbber 1.81.02
#
DISCID=b30b6a0d
DTITLE=Shake Well - Alles Wird Gut! (Live)
DYEAR=1994
DGENRE=Blues
TTITLE0=Schwingi in America
TTITLE1=Mustang Sally
TTITLE2=You can leave ...
TTITLE3=Drive my car
TTITLE4=Doin' it all
TTITLE5=Unchain my heart
TTITLE6=Everybody
TTITLE7=Soulman
TTITLE8=Sittin on the dock
TTITLE9=Almost
TTITLE10=If you love me
TTITLE11=Messin' with the kid
TTITLE12=Schluﬂbeifall
EXTD=
EXTT0=
EXTT1=
EXTT2=
EXTT3=
EXTT4=
EXTT5=
EXTT6=
EXTT7=
EXTT8=
EXTT9=
EXTT10=
EXTT11=
EXTT12=
PLAYORDER=
